<svg width="17" height="21" viewBox="0 0 17 21" fill="none" xmlns="http://www.w3.org/2000/svg">
<path d="M2.42162 9.55012L3.31865 9.99209C3.38639 9.85461 3.42162 9.70339 3.42162 9.55012H2.42162ZM1 12.4355L0.10297 11.9935C0.0203114 12.1613 -0.0136443 12.3488 0.00496 12.5349L1 12.4355ZM3.04892 15.0584L3.4668 14.1499C3.44046 14.1377 3.4136 14.1268 3.38631 14.117L3.04892 15.0584ZM8.10949 16.1811L8.10396 17.1811L8.11502 17.181L8.10949 16.1811ZM13.1701 15.0584L12.766 14.1436C12.7614 14.1457 12.7568 14.1477 12.7522 14.1499L13.1701 15.0584ZM14.6759 13.916L15.4479 14.5516C15.4881 14.5028 15.5235 14.4503 15.5538 14.3948L14.6759 13.916ZM14.5075 10.9928L13.5962 11.4046C13.6223 11.4623 13.6538 11.5175 13.6903 11.5692L14.5075 10.9928ZM13.6949 7.94887L14.6902 7.85174C14.6891 7.84068 14.6878 7.82964 14.6864 7.81863L13.6949 7.94887ZM8.10949 19.6473L8.09599 20.6472C8.10499 20.6474 8.11399 20.6474 8.12299 20.6472L8.10949 19.6473ZM8.10809 2.31152V1.31152C5.82593 1.31152 4.09769 2.27397 2.97598 3.85355C1.88584 5.38867 1.42162 7.42575 1.42162 9.55012H2.42162H3.42162C3.42162 7.67909 3.83591 6.09687 4.60664 5.01154C5.3458 3.97067 6.46079 3.31152 8.10809 3.31152V2.31152ZM2.42162 9.55012L1.52459 9.10815L0.10297 11.9935L1 12.4355L1.89703 12.8774L3.31865 9.99209L2.42162 9.55012ZM1 12.4355L0.00496 12.5349C0.162961 14.1154 1.21633 15.4639 2.71154 15.9997L3.04892 15.0584L3.38631 14.117C2.61772 13.8415 2.07626 13.1484 1.99504 12.336L1 12.4355ZM3.04892 15.0584L2.63105 15.9669C4.3481 16.7566 6.21402 17.1706 8.10396 17.181L8.10949 16.1811L8.11502 15.1811C6.50986 15.1722 4.92511 14.8206 3.4668 14.1499L3.04892 15.0584ZM8.10949 16.1811L8.11502 17.181C10.005 17.1706 11.8709 16.7566 13.5879 15.9669L13.1701 15.0584L12.7522 14.1499C11.2939 14.8206 9.70912 15.1722 8.10396 15.1811L8.10949 16.1811ZM13.1701 15.0584L13.5741 15.9731C14.3011 15.652 14.9428 15.1652 15.4479 14.5516L14.6759 13.916L13.9038 13.2804C13.5971 13.653 13.2074 13.9486 12.766 14.1436L13.1701 15.0584ZM14.6759 13.916L15.5538 14.3948C16.2418 13.1333 16.1529 11.5905 15.3246 10.4164L14.5075 10.9928L13.6903 11.5692C14.0792 12.1205 14.121 12.8449 13.7979 13.4372L14.6759 13.916ZM14.5075 10.9928L15.4187 10.581C15.0284 9.71716 14.7823 8.79519 14.6902 7.85174L13.6949 7.94887L12.6996 8.04601C12.813 9.20701 13.1158 10.3416 13.5962 11.4046L14.5075 10.9928ZM13.6949 7.94887L14.6864 7.81863C14.4568 6.07089 13.8495 4.44679 12.7502 3.2453C11.6283 2.01901 10.0635 1.31152 8.10809 1.31152V2.31152V3.31152C9.539 3.31152 10.5557 3.80953 11.2746 4.59533C12.0163 5.40593 12.5092 6.6005 12.7034 8.07912L13.6949 7.94887ZM8.10812 2.31136H9.10812V0H8.10812H7.10812V2.31136H8.10812ZM4.55334 18.4924L3.97674 19.3094C5.1833 20.1609 6.61934 20.6273 8.09599 20.6472L8.10949 19.6473L8.12299 18.6474C7.05006 18.6329 6.00664 18.2941 5.12995 17.6753L4.55334 18.4924ZM8.10949 19.6473L8.12299 20.6472C9.59964 20.6273 11.0357 20.1609 12.2422 19.3094L11.6656 18.4924L11.089 17.6753C10.2123 18.2941 9.16892 18.6329 8.09599 18.6474L8.10949 19.6473Z" fill="#344561"/>
</svg>
