<svg width="18" height="18" viewBox="0 0 18 18" fill="none" xmlns="http://www.w3.org/2000/svg">
<g clip-path="url(#clip0_6396_489)">
<path d="M17.8087 9.2025C17.8087 8.61 17.7562 8.0475 17.6662 7.5H9.19116V10.8825H14.0437C13.8262 11.9925 13.1887 12.93 12.2437 13.5675V15.8175H15.1387C16.8337 14.25 17.8087 11.94 17.8087 9.2025Z" fill="#4285F4"/>
<path d="M9.19119 17.9998C11.6212 17.9998 13.6537 17.1898 15.1387 15.8173L12.2437 13.5673C11.4337 14.1073 10.4062 14.4373 9.19119 14.4373C6.84369 14.4373 4.85619 12.8548 4.14369 10.7173H1.15869V13.0348C2.63619 15.9748 5.67369 17.9998 9.19119 17.9998Z" fill="#34A853"/>
<path d="M4.14366 10.7173C3.95616 10.1773 3.85866 9.59984 3.85866 8.99984C3.85866 8.39984 3.96366 7.82234 4.14366 7.28234V4.96484H1.15866C0.543661 6.17984 0.191162 7.54484 0.191162 8.99984C0.191162 10.4548 0.543661 11.8198 1.15866 13.0348L4.14366 10.7173Z" fill="#FBBC05"/>
<path d="M9.19119 3.5625C10.5187 3.5625 11.7037 4.02 12.6412 4.9125L15.2062 2.3475C13.6537 0.892501 11.6212 0 9.19119 0C5.67369 0 2.63619 2.025 1.15869 4.965L4.14369 7.2825C4.85619 5.145 6.84369 3.5625 9.19119 3.5625Z" fill="#EA4335"/>
</g>
<defs>
<clipPath id="clip0_6396_489">
<rect width="18" height="18" rx="8" fill="white"/>
</clipPath>
</defs>
</svg>
