<svg width="119" height="115" viewBox="0 0 119 115" fill="none" xmlns="http://www.w3.org/2000/svg">
<g clip-path="url(#clip0_6352_199)">
<path d="M56.3081 0.254689C60.1718 -0.234608 64.6237 -0.0766061 68.2796 1.26386C81.4426 10.3464 98.6621 18.9856 110.862 29.0824C116.206 33.5065 117.991 39.1028 118.564 45.9071C117.459 64.745 119.963 85.1222 118.564 103.772C118.402 105.912 118.011 108.063 117.109 109.985C111.774 121.284 92.76 109.098 84.1807 109.088C78.5676 109.082 68.7613 113.95 62.7578 114.709C54.9644 115.698 51.1514 114.159 44.7726 110.357C34.1144 104.006 18.6291 94.0263 8.92408 86.5187C4.84231 83.3587 2.29184 79.4239 1.1814 74.3424C-0.436098 66.9468 -0.344828 40.8663 1.17126 33.3587C3.15383 23.532 11.0689 13.8938 20.2973 10.112C27.3808 7.20678 48.8646 1.1976 56.3081 0.254689ZM94.844 35.5656C88.2321 36.4524 67.5291 42.1609 61.3482 44.7756C55.3751 47.3036 49.4933 54.3525 48.7885 60.9071C47.9417 68.746 48.033 86.7939 48.7733 94.7348C49.4071 101.57 54.8528 103.7 60.9628 102.91C68.0565 101.993 85.7779 97.0182 92.7347 94.48C98.8548 92.2476 104.513 86.0804 106.166 79.7246C107.855 73.2465 107.586 54.006 107.044 46.7583C106.476 39.2455 102.942 34.4698 94.8542 35.5605L94.844 35.5656Z" fill="#344561"/>
<path d="M27.1228 81.3638L16.6904 75.6834L16.6697 75.6928L27.107 81.3785L27.1228 81.3638Z" fill="white"/>
<path d="M38.9935 95.631C38.939 100.194 32.0429 95.0643 30.8814 93.97C27.696 90.9637 27.8538 85.4051 27.1223 81.3687L27.1067 81.3783C27.9891 86.2619 27.7385 91.4549 31.8021 94.586C35.2297 97.224 38.9305 99.4743 38.9087 94.1028C38.8802 87.8282 36.6819 80.9622 35.6175 74.8425C33.9859 65.4476 32.5957 55.9749 30.7186 46.632C30.0989 43.5383 29.419 40.2893 26.826 38.2641C24.4598 36.4157 17.1711 32.9597 14.2756 34.2639C11.5609 35.4831 11.6189 40.8356 11.2491 43.2546C9.72224 53.2554 7.87047 63.2593 6.65657 73.3024C6.332 76.0036 5.99996 78.3629 8.05635 80.4904C14.9731 87.6405 15.5083 82.0297 16.669 75.7028L16.6846 75.6932C15.9766 79.5531 16.8157 84.1036 12.7704 83.3245C9.48082 82.6911 6.63605 79.667 6.34693 76.4173C6.15058 74.2117 6.92831 71.6039 7.25157 69.479C8.67027 60.1984 10.0486 50.9112 11.5128 41.6375C11.8196 39.6802 11.8497 35.7642 13.7728 34.546C16.4079 32.88 22.7178 36.1872 24.8402 37.2307C30.5396 40.0406 30.6925 46.3811 31.6848 52.1206C33.5711 62.9787 35.4521 73.8418 37.3383 84.6999C37.9513 88.2422 38.9771 92.0091 38.9832 95.6357L38.9935 95.631Z" fill="white"/>
<path d="M18.2758 65.8787L25.1305 69.2725L25.1149 69.2822L18.2552 65.8881L18.2758 65.8787Z" fill="white"/>
<path d="M21.3878 48.2508L18.2759 65.8784L18.2552 65.8878L21.3671 48.2602L21.3878 48.2508Z" fill="white"/>
<path d="M25.1305 69.2723L21.3878 48.2508L21.3671 48.2602L25.1149 69.2819L25.1305 69.2723Z" fill="white"/>
<path d="M38.9731 95.6404C38.9187 100.203 32.0226 95.0737 30.861 93.9794C27.6756 90.9731 27.8334 85.4145 27.1019 81.3781L16.6695 75.6977C15.9615 79.5576 16.8006 84.1081 12.7553 83.329C9.46568 82.6956 6.62092 79.6715 6.33199 76.4167C6.13564 74.2111 6.91337 71.6034 7.23662 69.4784C8.65533 60.1978 10.0286 50.9105 11.4927 41.6367C11.7996 39.6794 11.8297 35.7635 13.7528 34.5452C16.3828 32.8791 22.6978 36.1864 24.8202 37.23C30.5196 40.0398 30.6725 46.3803 31.6648 52.1198C33.5509 62.983 35.4371 73.8412 37.3232 84.7044C37.9362 88.2467 38.962 92.0136 38.968 95.6402L38.9731 95.6404Z" fill="white"/>
<path d="M38.9729 95.9159C39.0859 93.3087 38.3835 90.6607 37.9416 88.1042C36.3017 78.6579 34.6621 69.2065 33.0223 59.7602C32.0293 54.036 32.0924 42.0728 26.6246 38.0934C24.2932 36.3993 17.6769 33.2796 14.8855 34.1083C12.5458 34.8009 12.3087 37.1994 11.8625 39.3555C10.2579 47.0989 9.45555 55.0969 8.25926 62.9118C7.64104 66.9485 6.3584 71.3837 6.3812 75.5108C6.40034 78.6534 7.33977 79.8515 9.78755 81.5551C16.1864 86.008 15.5115 82.086 16.6902 75.6883L27.1225 81.3688C27.8364 85.3331 27.7001 90.8619 30.7682 93.8842C31.9867 95.0826 38.4549 99.987 38.9679 95.9157L38.9729 95.9159Z" fill="white"/>
<path d="M25.1149 69.2819L21.3671 48.2602L18.2552 65.8879L25.1149 69.2819Z" fill="white"/>
<path d="M21.3878 48.251L25.1305 69.2725L18.2758 65.8786L21.3878 48.251Z" fill="#344561"/>
<path d="M98.0436 60.9175C97.9878 52.9766 95.3105 46.9471 85.8287 46.2335C80.0787 45.8003 73.5073 47.1357 68.5686 49.9134C58.4377 55.6117 59.4823 65.1377 59.6445 74.7605C59.7865 83.1856 59.6749 92.2427 70.5512 94.3426C76.3874 95.469 83.6179 94.2254 88.8608 91.6922C92.3037 90.0256 95.2193 87.574 96.8317 84.2661C97.9472 81.9828 99.8842 74.7503 97.8762 72.8033C96.137 71.1163 87.0557 72.5689 85.6056 74.1693C83.6636 76.3151 85.9909 79.8625 84.0388 82.258C82.6241 83.996 78.8212 85.051 76.6003 84.2559C73.2944 83.0684 73.8014 79.9236 73.7507 77.1408C73.6848 73.4863 69.9985 52.8084 81.9599 56.5903C86.0315 57.8747 83.2376 60.5149 84.8095 63.1448C86.4625 65.9073 94.1393 64.7656 96.563 63.1041C97.4706 62.4822 98.003 62.049 98.0385 60.9124L98.0436 60.9175Z" fill="#344561"/>
<path d="M97.9878 58.0275C98.3123 63.8328 94.6818 64.5464 88.2068 64.3833C83.1362 64.2558 86.2901 62.9562 84.5813 59.0673C82.3402 53.9602 74.6279 56.9878 73.5631 61.4271C72.7873 64.6687 73.6037 68.7513 73.6544 72.0132C73.6949 74.7553 72.8684 78.7818 73.918 81.4424C74.9676 84.1029 76.6561 84.6636 79.5716 84.3017C87.9279 83.262 81.8686 75.2599 88.3284 73.3588C95.1483 71.3557 98.4948 70.8053 98.2464 77.4006C98.1095 81.0346 97.3033 84.3884 94.7984 87.2987C90.6558 92.1152 83.4912 94.159 77.0617 94.6075C69.5523 95.1274 62.1595 92.7319 60.2073 85.3975C58.5341 79.1131 59.2592 71.4781 59.462 65.1019C59.5786 61.4118 60.3442 57.9511 62.6767 54.8675C68.9743 46.5443 91.6091 40.7084 96.9787 52.844C97.6937 54.4648 97.9624 56.2844 97.9726 58.0275H97.9878Z" fill="#344561"/>
<path d="M98.0027 58.0324C98.3272 63.8377 94.6968 64.5513 88.2217 64.3882C83.1512 64.2607 86.305 62.961 84.5963 59.0721C82.3551 53.9651 74.6429 56.9926 73.578 61.432C72.8023 64.6736 73.6186 68.7612 73.6693 72.0181C73.7099 74.7602 72.8834 78.7867 73.933 81.4473C74.9826 84.1078 76.6711 84.6685 79.5866 84.3066C87.9428 83.2669 81.8835 75.2648 88.3434 73.3637C95.1632 71.3606 98.5098 70.8102 98.2613 77.4055C98.1244 81.0395 97.3182 84.3932 94.8134 87.3035C90.6708 92.1201 83.5061 94.1639 77.0767 94.6124C69.5673 95.1323 62.1744 92.7368 60.2223 85.4024C58.549 79.118 59.2741 71.483 59.4769 65.1068C59.5936 61.4167 60.3592 57.9559 62.6916 54.8724C68.9892 46.5492 91.624 40.7133 96.9937 52.8489C97.7086 54.4697 97.9774 56.2893 97.9875 58.0324H98.0027Z" fill="#344561"/>
<path d="M98.0284 60.9121C97.9726 52.9713 95.2954 46.9417 85.8135 46.2282C80.0635 45.7949 73.4921 47.1303 68.5534 49.9081C58.4225 55.6063 59.4721 65.1323 59.6293 74.7552C59.7713 83.1802 59.6598 92.2373 70.536 94.3372C76.3722 95.4636 83.6027 94.22 88.8457 91.6869C92.2885 90.0202 95.2041 87.5686 96.8165 84.2608C97.932 81.9774 99.869 74.745 97.861 72.798C94.7984 69.8265 87.9025 70.8204 85.5904 74.1639C83.8208 76.7276 85.8338 79.1333 83.623 81.8652C82.1323 83.7052 79.1458 85.3362 76.5902 84.2506C74.6685 83.4351 73.8876 81.4677 73.6747 80.8765C73.6645 79.643 73.6595 77.8388 73.6544 75.6573C73.6544 72.8133 73.6645 72.8795 73.6544 72.008C73.5986 64.9845 72.7417 63.0885 74.1361 60.4178C74.7091 59.327 75.3632 58.6644 75.6877 58.3586C75.926 58.1344 78.8365 55.5248 81.9396 56.5798C82.3554 56.7225 83.4202 56.957 83.9881 57.9407C84.7943 59.3372 83.6535 61.2383 84.7892 63.1344C86.4422 65.8969 94.119 64.7552 96.5427 63.0987C97.4503 62.4769 97.9827 62.0436 98.0182 60.907L98.0284 60.9121Z" fill="#344561"/>
</g>
<defs>
<clipPath id="clip0_6352_199">
<rect width="119" height="115" fill="white"/>
</clipPath>
</defs>
</svg>
